<svg id="visual" viewBox="0 0 2000 500" width="2000" height="500" xmlns="http://www.w3.org/2000/svg" xmlns:xlink="http://www.w3.org/1999/xlink" version="1.1"><rect x="0" y="0" width="2000" height="500" fill="#E5E5E5"></rect><path d="M0 325L41.7 328.5C83.3 332 166.7 339 250 326.2C333.3 313.3 416.7 280.7 500 251.7C583.3 222.7 666.7 197.3 750 197.3C833.3 197.3 916.7 222.7 1000 226.3C1083.3 230 1166.7 212 1250 231.7C1333.3 251.3 1416.7 308.7 1500 298.2C1583.3 287.7 1666.7 209.3 1750 171.5C1833.3 133.7 1916.7 136.3 1958.3 137.7L2000 139L2000 501L1958.3 501C1916.7 501 1833.3 501 1750 501C1666.7 501 1583.3 501 1500 501C1416.7 501 1333.3 501 1250 501C1166.7 501 1083.3 501 1000 501C916.7 501 833.3 501 750 501C666.7 501 583.3 501 500 501C416.7 501 333.3 501 250 501C166.7 501 83.3 501 41.7 501L0 501Z" fill="#fFF" stroke-linecap="round" stroke-linejoin="miter"></path></svg>